<svg xmlns="http://www.w3.org/2000/svg" fill="none">
    <symbol id="diskette__icon-id">     
            <path fill="#fff" d="M0 0h2.154v2.154H0zm0 2.154h2.154v2.154H0zm0 2.154h2.154v2.154H0zm0 2.154h2.154v2.154H0z"/>
            <path fill="#fff" d="M0 8.615h2.154v2.154H0zm0 2.155h2.154v2.154H0z"/>
            <path fill="#fff" d="M0 12.923h2.154v2.154H0zm0 2.154h2.154v2.154H0z"/>
            <path fill="#fff" d="M0 17.23h2.154v2.154H0zm0 2.155h2.154v2.154H0z"/>
            <path fill="#fff" d="M0 21.538h2.154v2.154H0zm0 2.154h2.154v2.154H0zm0 2.154h2.154V28H0zM23.693 0v2.154h-2.154V0z"/>
            <path fill="#fff" d="M21.54 0v2.154h-2.155V0zm-2.156 0v2.154H17.23V0zM17.23 0v2.154h-2.154V0z"/>
            <path fill="#fff" d="M15.077 0v2.154h-2.154V0zm-2.154 0v2.154H10.77V0zM10.77 0v2.154H8.615V0z"/>
            <path fill="#fff" d="M8.616 0v2.154H6.462V0zM6.46 0v2.154H4.308V0zM4.307 0v2.154H2.153V0zm21.54 2.154v2.154h-2.154V2.154zM6.46 4.308v2.154H4.308V4.308zm.001-2.154v2.154H4.307V2.154zM6.46 6.462v2.154H4.308V6.462zm15.079-2.154v2.154h-2.154V4.308zm.001-2.154v2.154h-2.155V2.154zm-.001 4.308v2.154h-2.154V6.462zM17.23 4.307v2.154h-2.154V4.307z"/>
            <path fill="#fff" d="M17.23 2.154v2.154h-2.153V2.154zm0 4.307v2.154h-2.154V6.461zm4.31 2.154v2.154h-2.155V8.615zm-2.156 0v2.154H17.23V8.615zm-2.154 0v2.154h-2.153V8.615zm-2.153 0v2.154h-2.154V8.615zm-2.154 0v2.154H10.77V8.615zm-2.153.001v2.154H8.616V8.616zm-2.154-.001v2.154H6.462V8.615zm-2.155 0v2.154H4.307V8.615zm17.232 6.462v2.154h-2.154v-2.154z"/>
            <path fill="#fff" d="M21.54 15.077v2.154h-2.155v-2.154zm-2.156 0v2.154H17.23v-2.154zm-2.154 0v2.154h-2.153v-2.154zm-2.153 0v2.154h-2.154v-2.154zm-2.154 0v2.154H10.77v-2.154zm-2.153.001v2.154H8.616v-2.154zm-2.154-.001v2.154H6.462v-2.154zm-2.155 0v2.154H4.307v-2.154zm17.232 2.153v2.155H21.54V17.23z"/>
            <path fill="#fff" d="M6.461 17.23v2.155H4.307V17.23zm17.231 2.155v2.154h-2.154v-2.154zm-17.232 0v2.154H4.308v-2.154z"/>
            <path fill="#fff" d="M23.693 21.538v2.154h-2.154v-2.154zm-17.232 0v2.154H4.307v-2.154zm0 2.154v2.154H4.307v-2.154zm17.232.001v2.154H21.54v-2.154z"/>
            <path fill="#fff" d="M25.846 25.845V28h-2.154v-2.154zm-2.154.001V28h-2.154v-2.154z"/>
            <path fill="#fff" d="M21.539 25.846V28h-2.154v-2.154zm-2.155 0V28H17.23v-2.154zm-2.154-.001V28h-2.154v-2.154zm-2.154.001V28h-2.154v-2.154z"/>
            <path fill="#fff" d="M12.923 25.846v2.153h-2.154v-2.153z"/>
            <path fill="#fff" d="M10.77 25.846V28H8.614v-2.154z"/>
            <path fill="#fff" d="M8.616 25.846V28H6.462v-2.154zm-2.156 0V28H4.308v-2.154zm-2.153-.001V28H2.153v-2.154zM28 28h-2.154v-2.154H28zm0-2.155h-2.154v-2.154H28z"/>
            <path fill="#fff" d="M28 23.693h-2.154v-2.154H28zm0-2.155h-2.154v-2.154H28z"/>
            <path fill="#fff" d="M28 19.385h-2.154V17.23H28z"/>
            <path fill="#fff" d="M28 17.231h-2.154v-2.154H28zm0-2.154h-2.154v-2.154H28zm0-2.154h-2.154v-2.154H28zm0-2.154h-2.154V8.615H28zm0-2.154h-2.154V6.461H28z"/>
            <path fill="#fff" d="M28 6.462h-2.154V4.308H28z"/>
    <symbol>
</svg>

