<svg xmlns="http://www.w3.org/2000/svg" width="28" height="28" fill="none" viewBox="0 0 28 28">
<symbol id="save">
  <path fill="#000" d="M0 0h2.15385v2.15385H0zM0 2.1543h2.15385v2.15385H0z"/>
  <path fill="#000" d="M0 4.30762h2.15385v2.15385H0zM0 6.46191h2.15385v2.15385H0z"/>
  <path fill="#000" d="M0 8.61523h2.15385v2.15385H0zM0 10.7695h2.15385v2.15385H0z"/>
  <path fill="#000" d="M0 12.9229h2.15385v2.15385H0zM0 15.0771h2.15385v2.15385H0z"/>
  <path fill="#000" d="M0 17.2305h2.15385v2.15385H0zM0 19.3848h2.15385v2.15385H0z"/>
  <path fill="#000" d="M0 21.5381h2.15385v2.15385H0zM0 23.6924h2.15385v2.15385H0z"/>
  <path fill="#000" d="M0 25.8457h2.15385v2.15385H0zM23.6927 0v2.15385h-2.15385V0z"/>
  <path fill="#000" d="M21.5391 0v2.15385h-2.15385V0zM19.3841 0v2.15385h-2.15385V0z"/>
  <path fill="#000" d="M17.2305 0v2.15385h-2.15385V0z"/>
  <path fill="#000" d="M15.0768 0v2.15385h-2.15385V0z"/>
  <path fill="#000" d="M12.9232 0v2.15385h-2.15385V0z"/>
  <path fill="#000" d="M10.7695 0v2.15385H8.61565V0z"/>
  <path fill="#000" d="M8.61589 0v2.15385H6.46204V0zM6.46094 0v2.15385H4.30709V0z"/>
  <path fill="#000" d="M4.3073 0v2.15385H2.15345V0zM25.8464 2.1543v2.15385h-2.15385V2.1543zM6.46094 4.30762v2.15385H4.30709V4.30762z"/>
  <path fill="#000" d="M6.46094 2.1543v2.15385H4.30709V2.1543zM6.46094 6.46191v2.15385H4.30709V6.46191zM21.5391 4.30762v2.15385h-2.15385V4.30762z"/>
  <path fill="#000" d="M21.5391 2.1543v2.15385h-2.15385V2.1543zM21.5391 6.46191v2.15385h-2.15385V6.46191zM17.2305 4.30762v2.15385h-2.15385V4.30762z"/>
  <path fill="#000" d="M17.2305 2.1543v2.15385h-2.15385V2.1543zM17.2305 6.46191v2.15385h-2.15385V6.46191zM21.5391 8.61523v2.15385h-2.15385V8.61523z"/>
  <path fill="#000" d="M19.3841 8.61523v2.15385h-2.15385V8.61523z"/>
  <path fill="#000" d="M17.2305 8.61523v2.15385h-2.15385V8.61523z"/>
  <path fill="#000" d="M15.0768 8.61523v2.15385h-2.15385V8.61523z"/>
  <path fill="#000" d="M12.9232 8.61523v2.15385h-2.15385V8.61523z"/>
  <path fill="#000" d="M10.7695 8.61523v2.15385H8.61565V8.61523z"/>
  <path fill="#000" d="M8.61589 8.61523v2.15385H6.46204V8.61523zM6.46094 8.61523v2.15385H4.30709V8.61523zM23.6927 15.0771v2.15385h-2.15385V15.0771z"/>
  <path fill="#000" d="M21.5391 15.0771v2.15385h-2.15385V15.0771zM19.3841 15.0771v2.15385h-2.15385V15.0771z"/>
  <path fill="#000" d="M17.2305 15.0771v2.15385h-2.15385V15.0771z"/>
  <path fill="#000" d="M15.0768 15.0771v2.15385h-2.15385V15.0771z"/>
  <path fill="#000" d="M12.9232 15.0771v2.15385h-2.15385V15.0771z"/>
  <path fill="#000" d="M10.7695 15.0771v2.15385H8.61565V15.0771z"/>
  <path fill="#000" d="M8.61589 15.0771v2.15385H6.46204V15.0771zM6.46094 15.0771v2.15385H4.30709V15.0771zM23.6927 17.2305v2.15385h-2.15385V17.2305z"/>
  <path fill="#000" d="M6.46094 17.2305v2.15385H4.30709V17.2305zM23.6927 19.3848v2.15385h-2.15385V19.3848zM6.46094 19.3848v2.15385H4.30709V19.3848z"/>
  <path fill="#000" d="M23.6927 21.5381v2.15385h-2.15385V21.5381zM6.46094 21.5381v2.15385H4.30709V21.5381zM6.46094 23.6924v2.15385H4.30709V23.6924zM23.6927 23.6924v2.15385h-2.15385V23.6924z"/>
  <path fill="#000" d="M25.8464 25.8457v2.15385h-2.15385V25.8457z"/>
  <path fill="#000" d="M23.6927 25.8457v2.15385h-2.15385V25.8457z"/>
  <path fill="#000" d="M21.5391 25.8457v2.15385h-2.15385V25.8457zM19.3841 25.8457v2.15385h-2.15385V25.8457z"/>
  <path fill="#000" d="M17.2305 25.8457v2.15385h-2.15385V25.8457z"/>
  <path fill="#000" d="M15.0768 25.8457v2.15385h-2.15385V25.8457z"/>
  <path fill="#000" d="M12.9232 25.8457v2.15385h-2.15385V25.8457z"/>
  <path fill="#000" d="M10.7695 25.8457v2.15385H8.61565V25.8457z"/>
  <path fill="#000" d="M8.61589 25.8457v2.15385H6.46204V25.8457zM6.46094 25.8457v2.15385H4.30709V25.8457z"/>
  <path fill="#000" d="M4.3073 25.8457v2.15385H2.15345V25.8457zM28 28h-2.15385v-2.15385H28zM28 25.8457h-2.15385v-2.15385H28z"/>
  <path fill="#000" d="M28 23.6924h-2.15385v-2.15385H28zM28 21.5381h-2.15385v-2.15385H28z"/>
  <path fill="#000" d="M28 19.3848h-2.15385v-2.15385H28zM28 17.2305h-2.15385v-2.15385H28z"/>
  <path fill="#000" d="M28 15.0771h-2.15385v-2.15385H28zM28 12.9229h-2.15385v-2.15385H28z"/>
  <path fill="#000" d="M28 10.7695h-2.15385V8.61565H28zM28 8.61523h-2.15385V6.46138H28z"/>
  <path fill="#000" d="M28 6.46191h-2.15385V4.30806H28z"/>
</symbol>
</svg>

